<svg id="Layer_1" data-name="Layer 1" xmlns="http://www.w3.org/2000/svg" viewBox="0 0 770.6 525.92"><path d="M950.07,660.46c21.8-3.5,45.4-61.34,4.79-80.73s-54.29-29.65-62.77-74.8-37.36-23.71-30.86,2.71-36.84,23.14-45.88,35.74c-15.67,21.84,19,25.33,38.84,37.76s-15.58,20.94-1.49,42S912.89,666.42,950.07,660.46Z" transform="translate(-811.4 -249.95)" style="fill:#32b5c6"/><path d="M952.3,659.91C946.42,652.1,941,644,935.33,636s-11.14-16.06-16.79-24-11.24-16-16.95-23.9c-2.84-4-5.75-7.9-8.66-11.82l-4.39-5.87-4.47-5.81c6.4,7.4,12.37,15.15,18.24,23s11.55,15.79,17.2,23.76,11.13,16.07,16.57,24.2l8.12,12.21C946.89,651.78,949.51,655.9,952.3,659.91Z" transform="translate(-811.4 -249.95)" style="fill:#fff"/><path d="M929.79,627.12c-2.24-.34-4.47-.75-6.7-1.12l-6.68-1.25c-4.45-.83-8.88-1.75-13.31-2.67s-8.85-1.9-13.26-2.94l-6.61-1.57c-2.19-.56-4.39-1.09-6.58-1.68,2.24.33,4.47.75,6.7,1.12l6.68,1.24c4.45.83,8.88,1.75,13.31,2.68s8.85,1.9,13.26,2.94l6.61,1.57C925.4,626,927.6,626.52,929.79,627.12Z" transform="translate(-811.4 -249.95)" style="fill:#fff"/><path d="M908.19,596.36c-.64-4.81-.93-9.64-1.13-14.46s-.24-9.67,0-14.52c.65,4.82.93,9.64,1.13,14.47S908.47,591.52,908.19,596.36Z" transform="translate(-811.4 -249.95)" style="fill:#fff"/><path d="M943.26,689.46s12.23-21.73-8.66-35.67-30.12-31.84-18.21-48.3,42.51-6.2,55.44-14.06,7.37-24.71,18-42.92c14.21-24.41,41.72-18,48.15-14.2s17.84,15.29,2.91,37.43-3.92,29.9,8,47.28-8.94,24.14-42.74,30-39.64,43.66-39.64,43.66l-23.19-3.23" transform="translate(-811.4 -249.95)" style="fill:#4dd0e1"/><path d="M951.86,711.31c-.71-14.65,1.28-29.33,4.4-43.65a204.42,204.42,0,0,1,6-21.2,218.25,218.25,0,0,1,8-20.51c3-6.68,6.35-13.25,10-19.6,1.77-3.22,3.76-6.31,5.67-9.44,1-1.55,2-3.07,3-4.6s2-3.06,3.13-4.53l3.22-4.45c1.06-1.5,2.24-2.91,3.35-4.37s2.24-2.91,3.41-4.31l3.54-4.22,1.78-2.09,1.85-2,3.71-4.06c2.49-2.68,5.12-5.24,7.68-7.85l-3.69,4.07c-1.22,1.36-2.51,2.66-3.68,4.06l-3.57,4.17-1.78,2.09-1.7,2.14-3.44,4.27c-1.14,1.43-2.2,2.92-3.31,4.37s-2.22,2.9-3.24,4.41l-3.13,4.5c-1.06,1.49-2,3-3,4.57s-2,3-3,4.59c-1.88,3.13-3.84,6.21-5.58,9.42-3.62,6.34-6.86,12.89-9.85,19.54a229.85,229.85,0,0,0-14.22,41.33,207,207,0,0,0-4.05,21.52A148,148,0,0,0,951.86,711.31Z" transform="translate(-811.4 -249.95)" style="fill:#fff"/><path d="M966.15,640.62a48.41,48.41,0,0,1,13.67-11.29,72.23,72.23,0,0,1,16.49-6.81l4.35-1,1.09-.26,1.1-.18,2.21-.34,2.21-.34,1.1-.16,1.11-.09,4.45-.32a41.31,41.31,0,0,1,4.45-.09l4.45.06c1.48.07,2.95.26,4.43.39s2.94.28,4.41.45c-3,0-5.91-.1-8.85-.06l-4.41.2c-1.47.08-2.94.08-4.39.29l-4.38.47-1.09.11-1.08.19-2.17.39-2.16.36-1.08.19L1001,623l-4.26,1a83.2,83.2,0,0,0-16.31,6.36l-1.93,1c-.65.34-1.26.76-1.89,1.13s-1.26.74-1.87,1.15L972.92,635A46.75,46.75,0,0,0,966.15,640.62Z" transform="translate(-811.4 -249.95)" style="fill:#fff"/><path d="M961,654.15a42.6,42.6,0,0,0,.6-7.54,45.48,45.48,0,0,0-.61-7.48,36,36,0,0,0-5.26-13.82,32.25,32.25,0,0,0-4.68-5.75,16.33,16.33,0,0,0-1.35-1.28c-.47-.4-.92-.83-1.4-1.22-1-.74-1.95-1.55-3-2.22a61.52,61.52,0,0,0-13.51-6.66,46.35,46.35,0,0,1,14.18,5.62,34.48,34.48,0,0,1,3.2,2.16c.51.4,1,.82,1.5,1.23a17.66,17.66,0,0,1,1.44,1.29,31.87,31.87,0,0,1,5,6,33.39,33.39,0,0,1,3.42,7A35.48,35.48,0,0,1,962.2,639,38.16,38.16,0,0,1,961,654.15Z" transform="translate(-811.4 -249.95)" style="fill:#fff"/><path d="M870.05,678.24c-38.72,8.91-39.65-21.81-15.93-38.93C869,628.6,838.67,622.89,827,612.48c-20.14-17.89,12.16-40.37,28.92-24.7s27.15,20.48,39.35,21.84,46.66,1.71,43.69,21.66c-1.85,12.43,10,23.05,8.35,35.51C911.45,655.77,890.22,673.59,870.05,678.24Z" transform="translate(-811.4 -249.95)" style="fill:#60e3f4"/><path d="M947.26,666.79c-3.85-2.4-7.68-4.84-11.55-7.2s-7.7-4.78-11.58-7.13c-7.75-4.72-15.49-9.42-23.35-14s-15.72-9-23.67-13.38c-4-2.12-8-4.31-12-6.32s-8.11-4-12.17-6.09c4.19,1.73,8.38,3.5,12.49,5.43s8.17,4,12.25,6c8.07,4.15,16,8.58,23.88,13.1s15.58,9.34,23.21,14.27c3.8,2.47,7.6,5,11.36,7.49S943.59,664.11,947.26,666.79Z" transform="translate(-811.4 -249.95)" style="fill:#fff"/><path d="M907.48,641.59c-.71-2.21-1.27-4.44-1.78-6.69s-1-4.5-1.38-6.76-.77-4.54-1.05-6.82-.55-4.58-.64-6.9c.71,2.21,1.27,4.45,1.78,6.69s1,4.51,1.38,6.77.76,4.53,1.05,6.82S907.38,639.27,907.48,641.59Z" transform="translate(-811.4 -249.95)" style="fill:#fff"/><path d="M918.09,648c-9.16.61-18.33.77-27.49.82s-18.33-.11-27.5-.67c9.17-.62,18.33-.78,27.49-.82S908.92,647.46,918.09,648Z" transform="translate(-811.4 -249.95)" style="fill:#fff"/><polygon points="94.64 474.23 151.3 474.23 164.49 422.68 81.45 422.68 94.64 474.23" style="fill:#39306c"/><rect x="883.98" y="659.5" width="100.77" height="20.75" transform="translate(1057.33 1089.81) rotate(180)" style="fill:#4b4583"/><g style="opacity:0.74"><path d="M1461.16,665.9c-4-9.1-13.73-11.85-18.48-20.06-8.49-14.7,5.79-18.49,7.49-28.26,2.26-13-7.77-11.84-12.94-19.76-6.09-9.31,4.21-20.32-2.11-29.17-15.71-22-41.27,2.17-57.94,7.25-10.2,3.11-25.47,4.42-33.5-1.49-10.61-7.8-21.18-25.88-10-36.32,15.83-14.71,10-22.24-7.09-26-7.58-1.65-11-6.91-2.64-12.91-12.77,16.81,29.84,1.5,37.43,12.91,5.26,7.92-1.23,12.6-3.06,18.68-4.69,15.59,7.07,29,31.6,13.39,14.1-9,12.91-25,27.87-29,14-3.8,30.24,7.6,35.38,22.89,5.09,15.14,11.13,22.9,29,21.18,21.29-2,37.72,10,28.19,27.31-8.44,15.38-31.83,6.65-43.69,15.46-13.16,9.79-9.06,23.26,8,35.91,5.29,3.92,13.42,9.78,11.32,16.47-1.36,4.34-9.86,11.22-15.33,11.4Z" transform="translate(-811.4 -249.95)" style="fill:#fff"/></g><path d="M1429.64,672h4.55v-5.6a4.54,4.54,0,0,1,4.74-4.32h53.89a4.55,4.55,0,0,1,4.75,4.32v34.3c0,13-11.57,23.52-25.84,23.52H1460c-11.33,0-20.94-6.65-24.42-15.89h-6c-4.56,0-8.26-3.37-8.26-7.52v-21.3C1421.38,675.32,1425.08,672,1429.64,672Zm-3,28.81a2.86,2.86,0,0,0,3,2.72h4.75a22,22,0,0,1-.2-2.83v-23.9h-4.55a2.86,2.86,0,0,0-3,2.71Z" transform="translate(-811.4 -249.95)" style="fill:#aa2709"/><path d="M1441.11,674.22a29.13,29.13,0,0,1,2.73-12.18h49a4.55,4.55,0,0,1,4.75,4.32v34.3a21.75,21.75,0,0,1-3.27,11.44c-.74,0-1.47.08-2.22.08C1463.93,712.18,1441.11,695.19,1441.11,674.22Z" transform="translate(-811.4 -249.95)" style="fill:#dc2709"/><path d="M864.14,775.88h682.49c7.3,0,13.22-5.39,13.22-12h0c0-6.64-5.92-12-13.22-12H864.14c-7.3,0-13.22,5.39-13.22,12h0C850.92,770.49,856.84,775.88,864.14,775.88Z" transform="translate(-811.4 -249.95)" style="fill:#39306c"/><path d="M847.42,758.14h715.93c10.3,0,18.65-7.6,18.65-17h0c0-9.38-8.35-17-18.65-17H847.42c-10.3,0-18.65,7.6-18.65,17h0C828.77,750.54,837.12,758.14,847.42,758.14Z" transform="translate(-811.4 -249.95)" style="fill:#221b4c"/><ellipse cx="151.87" cy="151.04" rx="48.43" ry="44.09" style="fill:#4b4583"/><ellipse cx="151.87" cy="151.04" rx="37.76" ry="34.37" style="fill:#fff"/><line x1="151.87" y1="151.04" x2="151.87" y2="130.37" style="fill:none;stroke:#4b4583;stroke-linecap:round;stroke-linejoin:round;stroke-width:0.9781569999999999px"/><line x1="151.87" y1="151.04" x2="137.99" y2="163.67" style="fill:none;stroke:#4b4583;stroke-linecap:round;stroke-linejoin:round;stroke-width:0.9781569999999999px"/><line x1="151.87" y1="181.52" x2="151.87" y2="177.44" style="fill:none;stroke:#4b4583;stroke-linecap:round;stroke-linejoin:round;stroke-width:0.684276px"/><line x1="135.13" y1="177.44" x2="137.37" y2="173.9" style="fill:none;stroke:#4b4583;stroke-linecap:round;stroke-linejoin:round;stroke-width:0.684276px"/><line x1="122.87" y1="166.28" x2="126.76" y2="164.24" style="fill:none;stroke:#4b4583;stroke-linecap:round;stroke-linejoin:round;stroke-width:0.684276px"/><line x1="118.36" y1="151.04" x2="122.87" y2="151.04" style="fill:none;stroke:#4b4583;stroke-linecap:round;stroke-linejoin:round;stroke-width:0.684276px"/><line x1="122.87" y1="135.8" x2="126.74" y2="137.84" style="fill:none;stroke:#4b4583;stroke-linecap:round;stroke-linejoin:round;stroke-width:0.684276px"/><line x1="135.13" y1="124.64" x2="137.37" y2="128.16" style="fill:none;stroke:#4b4583;stroke-linecap:round;stroke-linejoin:round;stroke-width:0.684276px"/><line x1="151.87" y1="124.64" x2="151.87" y2="120.54" style="fill:none;stroke:#4b4583;stroke-linecap:round;stroke-linejoin:round;stroke-width:0.684276px"/><line x1="166.37" y1="128.18" x2="168.61" y2="124.64" style="fill:none;stroke:#4b4583;stroke-linecap:round;stroke-linejoin:round;stroke-width:0.684276px"/><line x1="177.01" y1="137.84" x2="180.87" y2="135.8" style="fill:none;stroke:#4b4583;stroke-linecap:round;stroke-linejoin:round;stroke-width:0.684276px"/><line x1="180.87" y1="151.04" x2="185.36" y2="151.04" style="fill:none;stroke:#4b4583;stroke-linecap:round;stroke-linejoin:round;stroke-width:0.684276px"/><line x1="176.99" y1="164.24" x2="180.87" y2="166.28" style="fill:none;stroke:#4b4583;stroke-linecap:round;stroke-linejoin:round;stroke-width:0.684276px"/><line x1="166.37" y1="173.9" x2="168.61" y2="177.44" style="fill:none;stroke:#4b4583;stroke-linecap:round;stroke-linejoin:round;stroke-width:0.684276px"/><ellipse cx="151.87" cy="151.04" rx="2.19" ry="1.99" style="fill:#4b4583"/><path d="M1314.15,353.57c20.6-18.76,54.14-18.55,74.46.61,18.66,17.59,19.47,45.79,1.78,64.19-17.18,17.86-45.19,21-66.22,9.5a8.35,8.35,0,0,0-6.19-.68l-13.19,3.57a1.26,1.26,0,0,1-1.64-1.49l3.92-12a6.52,6.52,0,0,0-.76-5.65C1294.25,393.35,1296.86,369.31,1314.15,353.57Z" transform="translate(-811.4 -249.95)" style="fill:#aa2709"/><line x1="569.19" y1="116.42" x2="510.05" y2="116.42" style="fill:none;stroke:#fff;stroke-linecap:round;stroke-linejoin:round;stroke-width:1.6652600000000002px"/><line x1="524.23" y1="130.27" x2="510.05" y2="130.27" style="fill:none;stroke:#fff;stroke-linecap:round;stroke-linejoin:round;stroke-width:1.6652600000000002px"/><line x1="569.19" y1="130.27" x2="538.32" y2="130.27" style="fill:none;stroke:#fff;stroke-linecap:round;stroke-linejoin:round;stroke-width:1.6652600000000002px"/><line x1="542.14" y1="144.12" x2="510.05" y2="144.12" style="fill:none;stroke:#fff;stroke-linecap:round;stroke-linejoin:round;stroke-width:1.6652600000000002px"/><line x1="569.19" y1="144.12" x2="553.75" y2="144.12" style="fill:none;stroke:#fff;stroke-linecap:round;stroke-linejoin:round;stroke-width:1.6652600000000002px"/><line x1="524.23" y1="157.97" x2="510.05" y2="157.97" style="fill:none;stroke:#fff;stroke-linecap:round;stroke-linejoin:round;stroke-width:1.6652600000000002px"/><line x1="569.19" y1="157.97" x2="539.01" y2="157.97" style="fill:none;stroke:#fff;stroke-linecap:round;stroke-linejoin:round;stroke-width:1.6652600000000002px"/><path d="M1205,376.1s5.27-21.21-17.15-39.42-57.07-16.55-76.07-7.05c-24.62,12.3-48.79,44.87-26.7,91.39s-79.13,27.31-45.17,90.34,92.66,19.51,113.76,45.63,94.15-42.35,31.74-90.21S1200.27,419.12,1205,376.1Z" transform="translate(-811.4 -249.95)" style="fill:#221b4c"/><path d="M1210.71,515c25.61,9.94,46.82,69,48.8,195.09h-55.2S1170.77,499.47,1210.71,515Z" transform="translate(-811.4 -249.95)" style="fill:#c02709"/><path d="M1142.22,496.18c-30.28-2.72-79.63,1.86-97.36,19.69-3.91,3.93-3.93,11.3-1.84,21.49,7.41,36,41.26,107.29,23.27,186.82H1223.9s-15-62.14-6.6-81.75c9.56-22.42,17.82-42.68,8.42-61.41-21.41-42.64-2.24-60.3-15.81-66.46C1191.24,506.08,1167.83,498.48,1142.22,496.18Z" transform="translate(-811.4 -249.95)" style="fill:#aa2709"/><path d="M1077.17,601.71c6.6,34.82,50.89,39.12,73.09,32.31,0,0-32.31,17.81-55.61,7.81,0,0-5.94,17,2.94,70.49h-29s0-.1,0-.27c4.59-28,3.15-54.74-.85-79.06a103.2,103.2,0,0,0-3.1-16.28c0-.05,0-.1,0-.15-3.67-17-8.27-32.64-12.39-46.25a138.14,138.14,0,0,1-2.44-27.43S1070.58,566.89,1077.17,601.71Z" transform="translate(-811.4 -249.95)" style="fill:#d42709"/><path d="M1075.52,676.45s27.53,30.78,40.84,22.44c17.63-11,32.14-10.84,43.79-4.51a39.68,39.68,0,0,1,16.71,17.94h-94.5l-27.5-21.66Z" transform="translate(-811.4 -249.95)" style="fill:#f4ae98"/><path d="M1043.82,517.13s-24.29,57.77-45.12,105c-16.82,38.12,84.59,90.06,84.59,90.06L1100,691.75l-58.4-58.93,35.72-68.56s20.71-37.39-10.73-50.64C1049.13,506.24,1043.82,517.13,1043.82,517.13Z" transform="translate(-811.4 -249.95)" style="fill:#ca2709"/><path d="M1121.49,439.93s3.82,43.79-7.72,55.23c-14.84,14.7,11.21,46.42,50.34,70.43,0,0,21.87-22.11,4.73-58.13s-.53-56.36-.53-56.36Z" transform="translate(-811.4 -249.95)" style="fill:#f4ae98"/><path d="M1113.77,421c0,30,23.22,54.3,42.84,54.3s44.13-19.95,47.43-56.87c2.67-29.91-15-51.76-41.8-51.76S1113.77,391,1113.77,421Z" transform="translate(-811.4 -249.95)" style="fill:#ffb99f"/><path d="M1195.52,359.67c2.76,1.45,8.73,5,15.69,9.18,7.58,4.6,15.66,12.55,18.44,21.25,4.77,14.95-7.32,33.89-31.35,27.2s-35.52-41.78-55-21.49c-24.23,25.21-33,11.16-33,11.16s4.86-31.39,29.42-45.52C1152.83,353.88,1172.66,347.66,1195.52,359.67Z" transform="translate(-811.4 -249.95)" style="fill:#221b4c"/><path d="M1097.59,410.22c0,9.78,6.35,17.72,14.19,17.72S1126,420,1126,410.22s-6.36-17.73-14.2-17.73S1097.59,400.43,1097.59,410.22Z" transform="translate(-811.4 -249.95)" style="fill:#aa2709"/><path d="M1156.46,351.14c21.84-3.82,42.89,3.69,54.75,17.71-13.08-8.13-30.22-11.68-47.79-8.6-29,5.09-49.56,26.53-50.24,50.34a39.85,39.85,0,0,1-1.33-4.76C1106.57,380.87,1126.54,356.39,1156.46,351.14Z" transform="translate(-811.4 -249.95)" style="fill:#aa2709"/><path d="M1114.87,416s-4,40.05,36.49,43.86" transform="translate(-811.4 -249.95)" style="fill:none;stroke:#aa2709;stroke-miterlimit:10;stroke-width:1.0522200000000002px"/><path d="M1154,463.86h6.37a3.58,3.58,0,0,0,3.74-3.4h0a3.59,3.59,0,0,0-3.74-3.41H1154a3.59,3.59,0,0,0-3.74,3.41h0A3.58,3.58,0,0,0,1154,463.86Z" transform="translate(-811.4 -249.95)" style="fill:#aa2709"/><path d="M1059.51,724.18h229.55a5.56,5.56,0,0,0,5.81-5.28v-1.43a5.57,5.57,0,0,0-5.81-5.29H1059.51a5.57,5.57,0,0,0-5.81,5.29v1.43A5.56,5.56,0,0,0,1059.51,724.18Z" transform="translate(-811.4 -249.95)" style="fill:#39306c"/><path d="M1165.63,724.18h212a13.71,13.71,0,0,0,12.88-8.21l49.43-123.63c3.26-8.14-3.36-16.74-12.87-16.74h-212a13.72,13.72,0,0,0-12.88,8.2l-49.43,123.64C1149.49,715.58,1156.11,724.18,1165.63,724.18Z" transform="translate(-811.4 -249.95)" style="fill:#47417f"/><path d="M1432,576.41c-.8,73.08-108.31,132.18-240.83,132.18-13,0-25.74-.57-38.17-1.67l49.22-123.12a13.72,13.72,0,0,1,12.88-8.2h212A15,15,0,0,1,1432,576.41Z" transform="translate(-811.4 -249.95)" style="fill:#4b4583"/><path d="M1283.47,647.43c0,8.07,7.18,14.61,16,14.61s16-6.54,16-14.61-7.18-14.61-16-14.61S1283.47,639.36,1283.47,647.43Z" transform="translate(-811.4 -249.95)" style="fill:#5e5896"/><path d="M1053.5,260.05c-14.94-13.61-39.27-13.46-54,.44-13.53,12.76-14.12,33.21-1.29,46.56,12.46,13,32.78,15.25,48,6.89a6.08,6.08,0,0,1,4.49-.49l9.58,2.59a.92.92,0,0,0,1.19-1.08l-2.85-8.72a4.74,4.74,0,0,1,.55-4.1C1067.94,288.9,1066.05,271.46,1053.5,260.05Z" transform="translate(-811.4 -249.95)" style="fill:#aa2709"/><ellipse cx="236.37" cy="34.45" rx="6.11" ry="5.56" style="fill:#fff"/><ellipse cx="215.37" cy="34.45" rx="6.11" ry="5.56" style="fill:#fff"/><ellipse cx="194.38" cy="34.45" rx="6.11" ry="5.56" style="fill:#fff"/></svg>